<?xml version="1.0" encoding="iso-8859-1"?>
<!-- Uploaded to: SVG Repo, www.svgrepo.com, Generator: SVG Repo Mixer Tools -->
<!DOCTYPE svg PUBLIC "-//W3C//DTD SVG 1.1//EN" "http://www.w3.org/Graphics/SVG/1.1/DTD/svg11.dtd">
<svg fill="#000000" version="1.1" id="Capa_1" xmlns="http://www.w3.org/2000/svg" xmlns:xlink="http://www.w3.org/1999/xlink" 
	 width="800px" height="800px" viewBox="0 0 333.14 333.141"
	 xml:space="preserve">
<g>
	<g>
		<path d="M166.573,0.003C74.727,0.003,0,74.727,0,166.576c0,91.837,74.721,166.562,166.573,166.562
			c91.85,0,166.567-74.725,166.567-166.562C333.14,74.727,258.411,0.003,166.573,0.003z M166.573,296.243
			c-71.505,0-129.679-58.162-129.679-129.667c0-71.511,58.174-129.68,129.679-129.68c71.506,0,129.674,58.168,129.674,129.68
			C296.247,238.081,238.079,296.243,166.573,296.243z"/>
		<path d="M166.573,61.387c-58.003,0-105.183,47.189-105.183,105.189c0,57.994,47.186,105.18,105.183,105.18
			c57.995,0,105.181-47.186,105.181-105.18C271.753,108.576,224.568,61.387,166.573,61.387z M166.573,234.868
			c-37.656,0-68.289-30.63-68.289-68.292c0-37.653,30.633-68.296,68.289-68.296c37.656,0,68.287,30.637,68.287,68.296
			C234.86,204.227,204.229,234.868,166.573,234.868z"/>
	</g>
</g>
</svg>